<svg aria-roledescription="er" role="graphics-document document" viewBox="-27.277807235717773 0 435.7729797363281 964" style="max-width: 435.7729797363281px;" xmlns="http://www.w3.org/2000/svg" width="100%" id="mermaid-dc725c7f-e79c-4030-bd00-c8abbd4a96ef"><style>#mermaid-dc725c7f-e79c-4030-bd00-c8abbd4a96ef{font-family:"trebuchet ms",verdana,arial,sans-serif;font-size:16px;fill:#333;}#mermaid-dc725c7f-e79c-4030-bd00-c8abbd4a96ef .error-icon{fill:#552222;}#mermaid-dc725c7f-e79c-4030-bd00-c8abbd4a96ef .error-text{fill:#552222;stroke:#552222;}#mermaid-dc725c7f-e79c-4030-bd00-c8abbd4a96ef .edge-thickness-normal{stroke-width:2px;}#mermaid-dc725c7f-e79c-4030-bd00-c8abbd4a96ef .edge-thickness-thick{stroke-width:3.5px;}#mermaid-dc725c7f-e79c-4030-bd00-c8abbd4a96ef .edge-pattern-solid{stroke-dasharray:0;}#mermaid-dc725c7f-e79c-4030-bd00-c8abbd4a96ef .edge-pattern-dashed{stroke-dasharray:3;}#mermaid-dc725c7f-e79c-4030-bd00-c8abbd4a96ef .edge-pattern-dotted{stroke-dasharray:2;}#mermaid-dc725c7f-e79c-4030-bd00-c8abbd4a96ef .marker{fill:#333333;stroke:#333333;}#mermaid-dc725c7f-e79c-4030-bd00-c8abbd4a96ef .marker.cross{stroke:#333333;}#mermaid-dc725c7f-e79c-4030-bd00-c8abbd4a96ef svg{font-family:"trebuchet ms",verdana,arial,sans-serif;font-size:16px;}#mermaid-dc725c7f-e79c-4030-bd00-c8abbd4a96ef .entityBox{fill:#ECECFF;stroke:#9370DB;}#mermaid-dc725c7f-e79c-4030-bd00-c8abbd4a96ef .attributeBoxOdd{fill:#ffffff;stroke:#9370DB;}#mermaid-dc725c7f-e79c-4030-bd00-c8abbd4a96ef .attributeBoxEven{fill:#f2f2f2;stroke:#9370DB;}#mermaid-dc725c7f-e79c-4030-bd00-c8abbd4a96ef .relationshipLabelBox{fill:hsl(80, 100%, 96.2745098039%);opacity:0.7;background-color:hsl(80, 100%, 96.2745098039%);}#mermaid-dc725c7f-e79c-4030-bd00-c8abbd4a96ef .relationshipLabelBox rect{opacity:0.5;}#mermaid-dc725c7f-e79c-4030-bd00-c8abbd4a96ef .relationshipLine{stroke:#333333;}#mermaid-dc725c7f-e79c-4030-bd00-c8abbd4a96ef .entityTitleText{text-anchor:middle;font-size:18px;fill:#333;}#mermaid-dc725c7f-e79c-4030-bd00-c8abbd4a96ef :root{--mermaid-font-family:"trebuchet ms",verdana,arial,sans-serif;}</style><g></g><defs><marker orient="auto" markerHeight="18" markerWidth="18" refY="9" refX="0" id="ONLY_ONE_START"><path d="M9,0 L9,18 M15,0 L15,18" fill="none" stroke="gray"></path></marker></defs><defs><marker orient="auto" markerHeight="18" markerWidth="18" refY="9" refX="18" id="ONLY_ONE_END"><path d="M3,0 L3,18 M9,0 L9,18" fill="none" stroke="gray"></path></marker></defs><defs><marker orient="auto" markerHeight="18" markerWidth="30" refY="9" refX="0" id="ZERO_OR_ONE_START"><circle r="6" cy="9" cx="21" fill="white" stroke="gray"></circle><path d="M9,0 L9,18" fill="none" stroke="gray"></path></marker></defs><defs><marker orient="auto" markerHeight="18" markerWidth="30" refY="9" refX="30" id="ZERO_OR_ONE_END"><circle r="6" cy="9" cx="9" fill="white" stroke="gray"></circle><path d="M21,0 L21,18" fill="none" stroke="gray"></path></marker></defs><defs><marker orient="auto" markerHeight="36" markerWidth="45" refY="18" refX="18" id="ONE_OR_MORE_START"><path d="M0,18 Q 18,0 36,18 Q 18,36 0,18 M42,9 L42,27" fill="none" stroke="gray"></path></marker></defs><defs><marker orient="auto" markerHeight="36" markerWidth="45" refY="18" refX="27" id="ONE_OR_MORE_END"><path d="M3,9 L3,27 M9,18 Q27,0 45,18 Q27,36 9,18" fill="none" stroke="gray"></path></marker></defs><defs><marker orient="auto" markerHeight="36" markerWidth="57" refY="18" refX="18" id="ZERO_OR_MORE_START"><circle r="6" cy="18" cx="48" fill="white" stroke="gray"></circle><path d="M0,18 Q18,0 36,18 Q18,36 0,18" fill="none" stroke="gray"></path></marker></defs><defs><marker orient="auto" markerHeight="36" markerWidth="57" refY="18" refX="39" id="ZERO_OR_MORE_END"><circle r="6" cy="18" cx="9" fill="white" stroke="gray"></circle><path d="M21,18 Q39,0 57,18 Q39,36 21,18" fill="none" stroke="gray"></path></marker></defs><path style="stroke: gray; fill: none;" marker-start="url(#ONLY_ONE_START)" marker-end="url(#ZERO_OR_MORE_END)" d="M45.383,176L39.919,184.333C34.456,192.667,23.528,209.333,18.064,240.833C12.601,272.333,12.601,318.667,12.601,365C12.601,411.333,12.601,457.667,18.578,489.167C24.555,520.667,36.51,537.333,42.488,545.667L48.465,554" class="er relationshipLine"></path><path style="stroke: gray; fill: none;" marker-start="url(#ONLY_ONE_START)" marker-end="url(#ZERO_OR_MORE_END)" d="M147.664,176L153.128,184.333C158.591,192.667,169.519,209.333,174.982,226C180.446,242.667,180.446,259.333,180.446,267.667L180.446,276" class="er relationshipLine"></path><path style="stroke: gray; fill: none;" marker-start="url(#ONLY_ONE_START)" marker-end="url(#ZERO_OR_MORE_END)" d="M96.523,688L96.523,696.333C96.523,704.667,96.523,721.333,96.523,738C96.523,754.667,96.523,771.333,96.523,779.667L96.523,788" class="er relationshipLine"></path><path style="stroke: gray; fill: none;" marker-start="url(#ZERO_OR_MORE_START)" marker-end="url(#ZERO_OR_MORE_END)" d="M180.446,454L180.446,462.333C180.446,470.667,180.446,487.333,174.469,504C168.491,520.667,156.537,537.333,150.559,545.667L144.582,554" class="er relationshipLine"></path><g transform="translate(28.677902221679688,20 )" id="entity-User-818c511a-4a32-5484-ba70-875d765a9175"><rect height="156" width="135.6909637451172" y="0" x="0" class="er entityBox"></rect><text style="dominant-baseline: middle; text-anchor: middle; font-size: 12px;" transform="translate(67.8454818725586,12)" y="0" x="0" id="text-entity-User-818c511a-4a32-5484-ba70-875d765a9175" class="er entityLabel">User</text><rect height="22" width="52.06849670410156" y="24" x="0" class="er attributeBoxOdd"></rect><text style="dominant-baseline: middle; font-size: 10.2px;" transform="translate(5,35)" y="0" x="0" id="text-entity-User-818c511a-4a32-5484-ba70-875d765a9175-attr-1-type" class="er entityLabel">int</text><rect height="22" width="60.934783935546875" y="24" x="52.06849670410156" class="er attributeBoxOdd"></rect><text style="dominant-baseline: middle; font-size: 10.2px;" transform="translate(57.06849670410156,35)" y="0" x="0" id="text-entity-User-818c511a-4a32-5484-ba70-875d765a9175-attr-1-name" class="er entityLabel">id</text><rect height="22" width="22.68768310546875" y="24" x="113.00328063964844" class="er attributeBoxOdd"></rect><text style="dominant-baseline: middle; font-size: 10.2px;" transform="translate(118.00328063964844,35)" y="0" x="0" id="text-entity-User-818c511a-4a32-5484-ba70-875d765a9175-attr-1-key" class="er entityLabel">PK</text><rect height="22" width="52.06849670410156" y="46" x="0" class="er attributeBoxEven"></rect><text style="dominant-baseline: middle; font-size: 10.2px;" transform="translate(5,57)" y="0" x="0" id="text-entity-User-818c511a-4a32-5484-ba70-875d765a9175-attr-2-type" class="er entityLabel">string</text><rect height="22" width="60.934783935546875" y="46" x="52.06849670410156" class="er attributeBoxEven"></rect><text style="dominant-baseline: middle; font-size: 10.2px;" transform="translate(57.06849670410156,57)" y="0" x="0" id="text-entity-User-818c511a-4a32-5484-ba70-875d765a9175-attr-2-name" class="er entityLabel">username</text><rect height="22" width="22.68768310546875" y="46" x="113.00328063964844" class="er attributeBoxEven"></rect><text style="dominant-baseline: middle; font-size: 10.2px;" transform="translate(118.00328063964844,57)" y="0" x="0" id="text-entity-User-818c511a-4a32-5484-ba70-875d765a9175-attr-2-key" class="er entityLabel"></text><rect height="22" width="52.06849670410156" y="68" x="0" class="er attributeBoxOdd"></rect><text style="dominant-baseline: middle; font-size: 10.2px;" transform="translate(5,79)" y="0" x="0" id="text-entity-User-818c511a-4a32-5484-ba70-875d765a9175-attr-3-type" class="er entityLabel">string</text><rect height="22" width="60.934783935546875" y="68" x="52.06849670410156" class="er attributeBoxOdd"></rect><text style="dominant-baseline: middle; font-size: 10.2px;" transform="translate(57.06849670410156,79)" y="0" x="0" id="text-entity-User-818c511a-4a32-5484-ba70-875d765a9175-attr-3-name" class="er entityLabel">email</text><rect height="22" width="22.68768310546875" y="68" x="113.00328063964844" class="er attributeBoxOdd"></rect><text style="dominant-baseline: middle; font-size: 10.2px;" transform="translate(118.00328063964844,79)" y="0" x="0" id="text-entity-User-818c511a-4a32-5484-ba70-875d765a9175-attr-3-key" class="er entityLabel"></text><rect height="22" width="52.06849670410156" y="90" x="0" class="er attributeBoxEven"></rect><text style="dominant-baseline: middle; font-size: 10.2px;" transform="translate(5,101)" y="0" x="0" id="text-entity-User-818c511a-4a32-5484-ba70-875d765a9175-attr-4-type" class="er entityLabel">string</text><rect height="22" width="60.934783935546875" y="90" x="52.06849670410156" class="er attributeBoxEven"></rect><text style="dominant-baseline: middle; font-size: 10.2px;" transform="translate(57.06849670410156,101)" y="0" x="0" id="text-entity-User-818c511a-4a32-5484-ba70-875d765a9175-attr-4-name" class="er entityLabel">password</text><rect height="22" width="22.68768310546875" y="90" x="113.00328063964844" class="er attributeBoxEven"></rect><text style="dominant-baseline: middle; font-size: 10.2px;" transform="translate(118.00328063964844,101)" y="0" x="0" id="text-entity-User-818c511a-4a32-5484-ba70-875d765a9175-attr-4-key" class="er entityLabel"></text><rect height="22" width="52.06849670410156" y="112" x="0" class="er attributeBoxOdd"></rect><text style="dominant-baseline: middle; font-size: 10.2px;" transform="translate(5,123)" y="0" x="0" id="text-entity-User-818c511a-4a32-5484-ba70-875d765a9175-attr-5-type" class="er entityLabel">datetime</text><rect height="22" width="60.934783935546875" y="112" x="52.06849670410156" class="er attributeBoxOdd"></rect><text style="dominant-baseline: middle; font-size: 10.2px;" transform="translate(57.06849670410156,123)" y="0" x="0" id="text-entity-User-818c511a-4a32-5484-ba70-875d765a9175-attr-5-name" class="er entityLabel">created_at</text><rect height="22" width="22.68768310546875" y="112" x="113.00328063964844" class="er attributeBoxOdd"></rect><text style="dominant-baseline: middle; font-size: 10.2px;" transform="translate(118.00328063964844,123)" y="0" x="0" id="text-entity-User-818c511a-4a32-5484-ba70-875d765a9175-attr-5-key" class="er entityLabel"></text><rect height="22" width="52.06849670410156" y="134" x="0" class="er attributeBoxEven"></rect><text style="dominant-baseline: middle; font-size: 10.2px;" transform="translate(5,145)" y="0" x="0" id="text-entity-User-818c511a-4a32-5484-ba70-875d765a9175-attr-6-type" class="er entityLabel">boolean</text><rect height="22" width="60.934783935546875" y="134" x="52.06849670410156" class="er attributeBoxEven"></rect><text style="dominant-baseline: middle; font-size: 10.2px;" transform="translate(57.06849670410156,145)" y="0" x="0" id="text-entity-User-818c511a-4a32-5484-ba70-875d765a9175-attr-6-name" class="er entityLabel">is_active</text><rect height="22" width="22.68768310546875" y="134" x="113.00328063964844" class="er attributeBoxEven"></rect><text style="dominant-baseline: middle; font-size: 10.2px;" transform="translate(118.00328063964844,145)" y="0" x="0" id="text-entity-User-818c511a-4a32-5484-ba70-875d765a9175-attr-6-key" class="er entityLabel"></text></g><g transform="translate(28.677902221679688,554 )" id="entity-ContactList-4e97b91a-ac67-5049-a548-b27bab7dcf4a"><rect height="134" width="135.6909637451172" y="0" x="0" class="er entityBox"></rect><text style="dominant-baseline: middle; text-anchor: middle; font-size: 12px;" transform="translate(67.8454818725586,12)" y="0" x="0" id="text-entity-ContactList-4e97b91a-ac67-5049-a548-b27bab7dcf4a" class="er entityLabel">ContactList</text><rect height="22" width="52.06849670410156" y="24" x="0" class="er attributeBoxOdd"></rect><text style="dominant-baseline: middle; font-size: 10.2px;" transform="translate(5,35)" y="0" x="0" id="text-entity-ContactList-4e97b91a-ac67-5049-a548-b27bab7dcf4a-attr-1-type" class="er entityLabel">int</text><rect height="22" width="60.934783935546875" y="24" x="52.06849670410156" class="er attributeBoxOdd"></rect><text style="dominant-baseline: middle; font-size: 10.2px;" transform="translate(57.06849670410156,35)" y="0" x="0" id="text-entity-ContactList-4e97b91a-ac67-5049-a548-b27bab7dcf4a-attr-1-name" class="er entityLabel">id</text><rect height="22" width="22.68768310546875" y="24" x="113.00328063964844" class="er attributeBoxOdd"></rect><text style="dominant-baseline: middle; font-size: 10.2px;" transform="translate(118.00328063964844,35)" y="0" x="0" id="text-entity-ContactList-4e97b91a-ac67-5049-a548-b27bab7dcf4a-attr-1-key" class="er entityLabel">PK</text><rect height="22" width="52.06849670410156" y="46" x="0" class="er attributeBoxEven"></rect><text style="dominant-baseline: middle; font-size: 10.2px;" transform="translate(5,57)" y="0" x="0" id="text-entity-ContactList-4e97b91a-ac67-5049-a548-b27bab7dcf4a-attr-2-type" class="er entityLabel">string</text><rect height="22" width="60.934783935546875" y="46" x="52.06849670410156" class="er attributeBoxEven"></rect><text style="dominant-baseline: middle; font-size: 10.2px;" transform="translate(57.06849670410156,57)" y="0" x="0" id="text-entity-ContactList-4e97b91a-ac67-5049-a548-b27bab7dcf4a-attr-2-name" class="er entityLabel">name</text><rect height="22" width="22.68768310546875" y="46" x="113.00328063964844" class="er attributeBoxEven"></rect><text style="dominant-baseline: middle; font-size: 10.2px;" transform="translate(118.00328063964844,57)" y="0" x="0" id="text-entity-ContactList-4e97b91a-ac67-5049-a548-b27bab7dcf4a-attr-2-key" class="er entityLabel"></text><rect height="22" width="52.06849670410156" y="68" x="0" class="er attributeBoxOdd"></rect><text style="dominant-baseline: middle; font-size: 10.2px;" transform="translate(5,79)" y="0" x="0" id="text-entity-ContactList-4e97b91a-ac67-5049-a548-b27bab7dcf4a-attr-3-type" class="er entityLabel">datetime</text><rect height="22" width="60.934783935546875" y="68" x="52.06849670410156" class="er attributeBoxOdd"></rect><text style="dominant-baseline: middle; font-size: 10.2px;" transform="translate(57.06849670410156,79)" y="0" x="0" id="text-entity-ContactList-4e97b91a-ac67-5049-a548-b27bab7dcf4a-attr-3-name" class="er entityLabel">created_at</text><rect height="22" width="22.68768310546875" y="68" x="113.00328063964844" class="er attributeBoxOdd"></rect><text style="dominant-baseline: middle; font-size: 10.2px;" transform="translate(118.00328063964844,79)" y="0" x="0" id="text-entity-ContactList-4e97b91a-ac67-5049-a548-b27bab7dcf4a-attr-3-key" class="er entityLabel"></text><rect height="22" width="52.06849670410156" y="90" x="0" class="er attributeBoxEven"></rect><text style="dominant-baseline: middle; font-size: 10.2px;" transform="translate(5,101)" y="0" x="0" id="text-entity-ContactList-4e97b91a-ac67-5049-a548-b27bab7dcf4a-attr-4-type" class="er entityLabel">int</text><rect height="22" width="60.934783935546875" y="90" x="52.06849670410156" class="er attributeBoxEven"></rect><text style="dominant-baseline: middle; font-size: 10.2px;" transform="translate(57.06849670410156,101)" y="0" x="0" id="text-entity-ContactList-4e97b91a-ac67-5049-a548-b27bab7dcf4a-attr-4-name" class="er entityLabel">user_id</text><rect height="22" width="22.68768310546875" y="90" x="113.00328063964844" class="er attributeBoxEven"></rect><text style="dominant-baseline: middle; font-size: 10.2px;" transform="translate(118.00328063964844,101)" y="0" x="0" id="text-entity-ContactList-4e97b91a-ac67-5049-a548-b27bab7dcf4a-attr-4-key" class="er entityLabel">FK</text><rect height="22" width="52.06849670410156" y="112" x="0" class="er attributeBoxOdd"></rect><text style="dominant-baseline: middle; font-size: 10.2px;" transform="translate(5,123)" y="0" x="0" id="text-entity-ContactList-4e97b91a-ac67-5049-a548-b27bab7dcf4a-attr-5-type" class="er entityLabel">boolean</text><rect height="22" width="60.934783935546875" y="112" x="52.06849670410156" class="er attributeBoxOdd"></rect><text style="dominant-baseline: middle; font-size: 10.2px;" transform="translate(57.06849670410156,123)" y="0" x="0" id="text-entity-ContactList-4e97b91a-ac67-5049-a548-b27bab7dcf4a-attr-5-name" class="er entityLabel">is_active</text><rect height="22" width="22.68768310546875" y="112" x="113.00328063964844" class="er attributeBoxOdd"></rect><text style="dominant-baseline: middle; font-size: 10.2px;" transform="translate(118.00328063964844,123)" y="0" x="0" id="text-entity-ContactList-4e97b91a-ac67-5049-a548-b27bab7dcf4a-attr-5-key" class="er entityLabel"></text></g><g transform="translate(112.60064315795898,276 )" id="entity-Campaign-64f30186-f480-5bad-b69c-14b35806462f"><rect height="178" width="135.6909637451172" y="0" x="0" class="er entityBox"></rect><text style="dominant-baseline: middle; text-anchor: middle; font-size: 12px;" transform="translate(67.8454818725586,12)" y="0" x="0" id="text-entity-Campaign-64f30186-f480-5bad-b69c-14b35806462f" class="er entityLabel">Campaign</text><rect height="22" width="52.06849670410156" y="24" x="0" class="er attributeBoxOdd"></rect><text style="dominant-baseline: middle; font-size: 10.2px;" transform="translate(5,35)" y="0" x="0" id="text-entity-Campaign-64f30186-f480-5bad-b69c-14b35806462f-attr-1-type" class="er entityLabel">int</text><rect height="22" width="60.934783935546875" y="24" x="52.06849670410156" class="er attributeBoxOdd"></rect><text style="dominant-baseline: middle; font-size: 10.2px;" transform="translate(57.06849670410156,35)" y="0" x="0" id="text-entity-Campaign-64f30186-f480-5bad-b69c-14b35806462f-attr-1-name" class="er entityLabel">id</text><rect height="22" width="22.68768310546875" y="24" x="113.00328063964844" class="er attributeBoxOdd"></rect><text style="dominant-baseline: middle; font-size: 10.2px;" transform="translate(118.00328063964844,35)" y="0" x="0" id="text-entity-Campaign-64f30186-f480-5bad-b69c-14b35806462f-attr-1-key" class="er entityLabel">PK</text><rect height="22" width="52.06849670410156" y="46" x="0" class="er attributeBoxEven"></rect><text style="dominant-baseline: middle; font-size: 10.2px;" transform="translate(5,57)" y="0" x="0" id="text-entity-Campaign-64f30186-f480-5bad-b69c-14b35806462f-attr-2-type" class="er entityLabel">string</text><rect height="22" width="60.934783935546875" y="46" x="52.06849670410156" class="er attributeBoxEven"></rect><text style="dominant-baseline: middle; font-size: 10.2px;" transform="translate(57.06849670410156,57)" y="0" x="0" id="text-entity-Campaign-64f30186-f480-5bad-b69c-14b35806462f-attr-2-name" class="er entityLabel">subject</text><rect height="22" width="22.68768310546875" y="46" x="113.00328063964844" class="er attributeBoxEven"></rect><text style="dominant-baseline: middle; font-size: 10.2px;" transform="translate(118.00328063964844,57)" y="0" x="0" id="text-entity-Campaign-64f30186-f480-5bad-b69c-14b35806462f-attr-2-key" class="er entityLabel"></text><rect height="22" width="52.06849670410156" y="68" x="0" class="er attributeBoxOdd"></rect><text style="dominant-baseline: middle; font-size: 10.2px;" transform="translate(5,79)" y="0" x="0" id="text-entity-Campaign-64f30186-f480-5bad-b69c-14b35806462f-attr-3-type" class="er entityLabel">text</text><rect height="22" width="60.934783935546875" y="68" x="52.06849670410156" class="er attributeBoxOdd"></rect><text style="dominant-baseline: middle; font-size: 10.2px;" transform="translate(57.06849670410156,79)" y="0" x="0" id="text-entity-Campaign-64f30186-f480-5bad-b69c-14b35806462f-attr-3-name" class="er entityLabel">body</text><rect height="22" width="22.68768310546875" y="68" x="113.00328063964844" class="er attributeBoxOdd"></rect><text style="dominant-baseline: middle; font-size: 10.2px;" transform="translate(118.00328063964844,79)" y="0" x="0" id="text-entity-Campaign-64f30186-f480-5bad-b69c-14b35806462f-attr-3-key" class="er entityLabel"></text><rect height="22" width="52.06849670410156" y="90" x="0" class="er attributeBoxEven"></rect><text style="dominant-baseline: middle; font-size: 10.2px;" transform="translate(5,101)" y="0" x="0" id="text-entity-Campaign-64f30186-f480-5bad-b69c-14b35806462f-attr-4-type" class="er entityLabel">datetime</text><rect height="22" width="60.934783935546875" y="90" x="52.06849670410156" class="er attributeBoxEven"></rect><text style="dominant-baseline: middle; font-size: 10.2px;" transform="translate(57.06849670410156,101)" y="0" x="0" id="text-entity-Campaign-64f30186-f480-5bad-b69c-14b35806462f-attr-4-name" class="er entityLabel">created_at</text><rect height="22" width="22.68768310546875" y="90" x="113.00328063964844" class="er attributeBoxEven"></rect><text style="dominant-baseline: middle; font-size: 10.2px;" transform="translate(118.00328063964844,101)" y="0" x="0" id="text-entity-Campaign-64f30186-f480-5bad-b69c-14b35806462f-attr-4-key" class="er entityLabel"></text><rect height="22" width="52.06849670410156" y="112" x="0" class="er attributeBoxOdd"></rect><text style="dominant-baseline: middle; font-size: 10.2px;" transform="translate(5,123)" y="0" x="0" id="text-entity-Campaign-64f30186-f480-5bad-b69c-14b35806462f-attr-5-type" class="er entityLabel">datetime</text><rect height="22" width="60.934783935546875" y="112" x="52.06849670410156" class="er attributeBoxOdd"></rect><text style="dominant-baseline: middle; font-size: 10.2px;" transform="translate(57.06849670410156,123)" y="0" x="0" id="text-entity-Campaign-64f30186-f480-5bad-b69c-14b35806462f-attr-5-name" class="er entityLabel">sent_at</text><rect height="22" width="22.68768310546875" y="112" x="113.00328063964844" class="er attributeBoxOdd"></rect><text style="dominant-baseline: middle; font-size: 10.2px;" transform="translate(118.00328063964844,123)" y="0" x="0" id="text-entity-Campaign-64f30186-f480-5bad-b69c-14b35806462f-attr-5-key" class="er entityLabel"></text><rect height="22" width="52.06849670410156" y="134" x="0" class="er attributeBoxEven"></rect><text style="dominant-baseline: middle; font-size: 10.2px;" transform="translate(5,145)" y="0" x="0" id="text-entity-Campaign-64f30186-f480-5bad-b69c-14b35806462f-attr-6-type" class="er entityLabel">string</text><rect height="22" width="60.934783935546875" y="134" x="52.06849670410156" class="er attributeBoxEven"></rect><text style="dominant-baseline: middle; font-size: 10.2px;" transform="translate(57.06849670410156,145)" y="0" x="0" id="text-entity-Campaign-64f30186-f480-5bad-b69c-14b35806462f-attr-6-name" class="er entityLabel">status</text><rect height="22" width="22.68768310546875" y="134" x="113.00328063964844" class="er attributeBoxEven"></rect><text style="dominant-baseline: middle; font-size: 10.2px;" transform="translate(118.00328063964844,145)" y="0" x="0" id="text-entity-Campaign-64f30186-f480-5bad-b69c-14b35806462f-attr-6-key" class="er entityLabel"></text><rect height="22" width="52.06849670410156" y="156" x="0" class="er attributeBoxOdd"></rect><text style="dominant-baseline: middle; font-size: 10.2px;" transform="translate(5,167)" y="0" x="0" id="text-entity-Campaign-64f30186-f480-5bad-b69c-14b35806462f-attr-7-type" class="er entityLabel">int</text><rect height="22" width="60.934783935546875" y="156" x="52.06849670410156" class="er attributeBoxOdd"></rect><text style="dominant-baseline: middle; font-size: 10.2px;" transform="translate(57.06849670410156,167)" y="0" x="0" id="text-entity-Campaign-64f30186-f480-5bad-b69c-14b35806462f-attr-7-name" class="er entityLabel">user_id</text><rect height="22" width="22.68768310546875" y="156" x="113.00328063964844" class="er attributeBoxOdd"></rect><text style="dominant-baseline: middle; font-size: 10.2px;" transform="translate(118.00328063964844,167)" y="0" x="0" id="text-entity-Campaign-64f30186-f480-5bad-b69c-14b35806462f-attr-7-key" class="er entityLabel">FK</text></g><g transform="translate(20,788 )" id="entity-ContactEmail-14eea0a2-389c-5729-bfc7-ce9e05056916"><rect height="156" width="153.04676818847656" y="0" x="0" class="er entityBox"></rect><text style="dominant-baseline: middle; text-anchor: middle; font-size: 12px;" transform="translate(76.52338409423828,12)" y="0" x="0" id="text-entity-ContactEmail-14eea0a2-389c-5729-bfc7-ce9e05056916" class="er entityLabel">ContactEmail</text><rect height="22" width="52.06849670410156" y="24" x="0" class="er attributeBoxOdd"></rect><text style="dominant-baseline: middle; font-size: 10.2px;" transform="translate(5,35)" y="0" x="0" id="text-entity-ContactEmail-14eea0a2-389c-5729-bfc7-ce9e05056916-attr-1-type" class="er entityLabel">int</text><rect height="22" width="78.29058837890625" y="24" x="52.06849670410156" class="er attributeBoxOdd"></rect><text style="dominant-baseline: middle; font-size: 10.2px;" transform="translate(57.06849670410156,35)" y="0" x="0" id="text-entity-ContactEmail-14eea0a2-389c-5729-bfc7-ce9e05056916-attr-1-name" class="er entityLabel">id</text><rect height="22" width="22.68768310546875" y="24" x="130.3590850830078" class="er attributeBoxOdd"></rect><text style="dominant-baseline: middle; font-size: 10.2px;" transform="translate(135.3590850830078,35)" y="0" x="0" id="text-entity-ContactEmail-14eea0a2-389c-5729-bfc7-ce9e05056916-attr-1-key" class="er entityLabel">PK</text><rect height="22" width="52.06849670410156" y="46" x="0" class="er attributeBoxEven"></rect><text style="dominant-baseline: middle; font-size: 10.2px;" transform="translate(5,57)" y="0" x="0" id="text-entity-ContactEmail-14eea0a2-389c-5729-bfc7-ce9e05056916-attr-2-type" class="er entityLabel">string</text><rect height="22" width="78.29058837890625" y="46" x="52.06849670410156" class="er attributeBoxEven"></rect><text style="dominant-baseline: middle; font-size: 10.2px;" transform="translate(57.06849670410156,57)" y="0" x="0" id="text-entity-ContactEmail-14eea0a2-389c-5729-bfc7-ce9e05056916-attr-2-name" class="er entityLabel">email</text><rect height="22" width="22.68768310546875" y="46" x="130.3590850830078" class="er attributeBoxEven"></rect><text style="dominant-baseline: middle; font-size: 10.2px;" transform="translate(135.3590850830078,57)" y="0" x="0" id="text-entity-ContactEmail-14eea0a2-389c-5729-bfc7-ce9e05056916-attr-2-key" class="er entityLabel"></text><rect height="22" width="52.06849670410156" y="68" x="0" class="er attributeBoxOdd"></rect><text style="dominant-baseline: middle; font-size: 10.2px;" transform="translate(5,79)" y="0" x="0" id="text-entity-ContactEmail-14eea0a2-389c-5729-bfc7-ce9e05056916-attr-3-type" class="er entityLabel">string</text><rect height="22" width="78.29058837890625" y="68" x="52.06849670410156" class="er attributeBoxOdd"></rect><text style="dominant-baseline: middle; font-size: 10.2px;" transform="translate(57.06849670410156,79)" y="0" x="0" id="text-entity-ContactEmail-14eea0a2-389c-5729-bfc7-ce9e05056916-attr-3-name" class="er entityLabel">name</text><rect height="22" width="22.68768310546875" y="68" x="130.3590850830078" class="er attributeBoxOdd"></rect><text style="dominant-baseline: middle; font-size: 10.2px;" transform="translate(135.3590850830078,79)" y="0" x="0" id="text-entity-ContactEmail-14eea0a2-389c-5729-bfc7-ce9e05056916-attr-3-key" class="er entityLabel"></text><rect height="22" width="52.06849670410156" y="90" x="0" class="er attributeBoxEven"></rect><text style="dominant-baseline: middle; font-size: 10.2px;" transform="translate(5,101)" y="0" x="0" id="text-entity-ContactEmail-14eea0a2-389c-5729-bfc7-ce9e05056916-attr-4-type" class="er entityLabel">datetime</text><rect height="22" width="78.29058837890625" y="90" x="52.06849670410156" class="er attributeBoxEven"></rect><text style="dominant-baseline: middle; font-size: 10.2px;" transform="translate(57.06849670410156,101)" y="0" x="0" id="text-entity-ContactEmail-14eea0a2-389c-5729-bfc7-ce9e05056916-attr-4-name" class="er entityLabel">created_at</text><rect height="22" width="22.68768310546875" y="90" x="130.3590850830078" class="er attributeBoxEven"></rect><text style="dominant-baseline: middle; font-size: 10.2px;" transform="translate(135.3590850830078,101)" y="0" x="0" id="text-entity-ContactEmail-14eea0a2-389c-5729-bfc7-ce9e05056916-attr-4-key" class="er entityLabel"></text><rect height="22" width="52.06849670410156" y="112" x="0" class="er attributeBoxOdd"></rect><text style="dominant-baseline: middle; font-size: 10.2px;" transform="translate(5,123)" y="0" x="0" id="text-entity-ContactEmail-14eea0a2-389c-5729-bfc7-ce9e05056916-attr-5-type" class="er entityLabel">int</text><rect height="22" width="78.29058837890625" y="112" x="52.06849670410156" class="er attributeBoxOdd"></rect><text style="dominant-baseline: middle; font-size: 10.2px;" transform="translate(57.06849670410156,123)" y="0" x="0" id="text-entity-ContactEmail-14eea0a2-389c-5729-bfc7-ce9e05056916-attr-5-name" class="er entityLabel">contact_list_id</text><rect height="22" width="22.68768310546875" y="112" x="130.3590850830078" class="er attributeBoxOdd"></rect><text style="dominant-baseline: middle; font-size: 10.2px;" transform="translate(135.3590850830078,123)" y="0" x="0" id="text-entity-ContactEmail-14eea0a2-389c-5729-bfc7-ce9e05056916-attr-5-key" class="er entityLabel">FK</text><rect height="22" width="52.06849670410156" y="134" x="0" class="er attributeBoxEven"></rect><text style="dominant-baseline: middle; font-size: 10.2px;" transform="translate(5,145)" y="0" x="0" id="text-entity-ContactEmail-14eea0a2-389c-5729-bfc7-ce9e05056916-attr-6-type" class="er entityLabel">boolean</text><rect height="22" width="78.29058837890625" y="134" x="52.06849670410156" class="er attributeBoxEven"></rect><text style="dominant-baseline: middle; font-size: 10.2px;" transform="translate(57.06849670410156,145)" y="0" x="0" id="text-entity-ContactEmail-14eea0a2-389c-5729-bfc7-ce9e05056916-attr-6-name" class="er entityLabel">is_valid</text><rect height="22" width="22.68768310546875" y="134" x="130.3590850830078" class="er attributeBoxEven"></rect><text style="dominant-baseline: middle; font-size: 10.2px;" transform="translate(135.3590850830078,145)" y="0" x="0" id="text-entity-ContactEmail-14eea0a2-389c-5729-bfc7-ce9e05056916-attr-6-key" class="er entityLabel"></text></g><g transform="translate(264.3688659667969,64 )" id="entity-CampaignList-d25480e1-bc40-553b-a85e-c9eaea4f2737"><rect height="68" width="124.12631225585938" y="0" x="0" class="er entityBox"></rect><text style="dominant-baseline: middle; text-anchor: middle; font-size: 12px;" transform="translate(62.06315612792969,12)" y="0" x="0" id="text-entity-CampaignList-d25480e1-bc40-553b-a85e-c9eaea4f2737" class="er entityLabel">CampaignList</text><rect height="22" width="23.481719970703125" y="24" x="0" class="er attributeBoxOdd"></rect><text style="dominant-baseline: middle; font-size: 10.2px;" transform="translate(5,35)" y="0" x="0" id="text-entity-CampaignList-d25480e1-bc40-553b-a85e-c9eaea4f2737-attr-1-type" class="er entityLabel">int</text><rect height="22" width="78.29058837890625" y="24" x="23.481719970703125" class="er attributeBoxOdd"></rect><text style="dominant-baseline: middle; font-size: 10.2px;" transform="translate(28.481719970703125,35)" y="0" x="0" id="text-entity-CampaignList-d25480e1-bc40-553b-a85e-c9eaea4f2737-attr-1-name" class="er entityLabel">campaign_id</text><rect height="22" width="22.35400390625" y="24" x="101.77230834960938" class="er attributeBoxOdd"></rect><text style="dominant-baseline: middle; font-size: 10.2px;" transform="translate(106.77230834960938,35)" y="0" x="0" id="text-entity-CampaignList-d25480e1-bc40-553b-a85e-c9eaea4f2737-attr-1-key" class="er entityLabel">FK</text><rect height="22" width="23.481719970703125" y="46" x="0" class="er attributeBoxEven"></rect><text style="dominant-baseline: middle; font-size: 10.2px;" transform="translate(5,57)" y="0" x="0" id="text-entity-CampaignList-d25480e1-bc40-553b-a85e-c9eaea4f2737-attr-2-type" class="er entityLabel">int</text><rect height="22" width="78.29058837890625" y="46" x="23.481719970703125" class="er attributeBoxEven"></rect><text style="dominant-baseline: middle; font-size: 10.2px;" transform="translate(28.481719970703125,57)" y="0" x="0" id="text-entity-CampaignList-d25480e1-bc40-553b-a85e-c9eaea4f2737-attr-2-name" class="er entityLabel">contact_list_id</text><rect height="22" width="22.35400390625" y="46" x="101.77230834960938" class="er attributeBoxEven"></rect><text style="dominant-baseline: middle; font-size: 10.2px;" transform="translate(106.77230834960938,57)" y="0" x="0" id="text-entity-CampaignList-d25480e1-bc40-553b-a85e-c9eaea4f2737-attr-2-key" class="er entityLabel">FK</text></g><rect height="14" width="39.7578125" y="358.5912170410156" x="-7.277807235717773" class="er relationshipLabelBox"></rect><text style="text-anchor: middle; dominant-baseline: middle; font-size: 12px;" y="365.5912170410156" x="12.601099014282227" id="rel17" class="er relationshipLabel">creates</text><rect height="14" width="39.7578125" y="215.87953186035156" x="154.01832580566406" class="er relationshipLabelBox"></rect><text style="text-anchor: middle; dominant-baseline: middle; font-size: 12px;" y="222.87953186035156" x="173.89723205566406" id="rel18" class="er relationshipLabel">creates</text><rect height="14" width="44.978515625" y="731" x="74.03374481201172" class="er relationshipLabelBox"></rect><text style="text-anchor: middle; dominant-baseline: middle; font-size: 12px;" y="738" x="96.52300262451172" id="rel19" class="er relationshipLabel">contains</text><rect height="14" width="38.052734375" y="500.64044189453125" x="154.04493713378906" class="er relationshipLabelBox"></rect><text style="text-anchor: middle; dominant-baseline: middle; font-size: 12px;" y="507.64044189453125" x="173.07130432128906" id="rel20" class="er relationshipLabel">targets</text></svg>